<?xml version="1.0" encoding="UTF-8"?><svg xmlns="http://www.w3.org/2000/svg" viewBox="0 0 2888.21 2498.23"><defs><style>.d{fill:#000921;}.e{fill:#00143f;}.f{fill:none;stroke:#00143f;stroke-miterlimit:10;stroke-width:.5px;}</style></defs><g id="a"/><g id="b"><g id="c"><rect class="d" x=".61" y=".23" width="2887" height="2498"/><path class="e" d="M785.31,732.31l268.21,20.62-20.62,268.21-268.21-20.62,20.62-268.21m-.46-.54l-20.7,269.21,269.21,20.7,20.7-269.21-269.21-20.7h0Z"/><path class="e" d="M2232.89,478.14l554.8,296.37-296.37,554.8-554.8-296.37,296.37-554.8m-.21-.68l-296.84,555.69,555.69,296.84,296.84-555.69-555.69-296.84h0Z"/><path class="e" d="M1999.33,1883.02l69.67,250.63-250.63,69.67-69.67-250.63,250.63-69.67m.35-.62l-251.59,69.94,69.94,251.59,251.59-69.94-69.94-251.59h0Z"/><path class="e" d="M515.58,1552.08l319.17,423.12-423.12,319.17L92.46,1871.25l423.12-319.17m.1-.7L91.76,1871.15l319.77,423.92,423.92-319.77-319.77-423.92h0Z"/><path class="e" d="M2054.14,1577.11l88.58,8.65-8.65,88.58-88.58-8.65,8.65-88.58m-.45-.55l-8.75,89.57,89.57,8.75,8.75-89.57-89.57-8.75h0Z"/><path class="e" d="M682.76,1067.89l115.18,66.5-66.5,115.18-115.18-66.5,66.5-115.18m-.18-.68l-67,116.05,116.05,67,67-116.05-116.05-67h0Z"/><path class="e" d="M1135.76,163.89l115.18,66.5-66.5,115.18-115.18-66.5,66.5-115.18m-.18-.68l-67,116.05,116.05,67,67-116.05-116.05-67h0Z"/><path class="e" d="M1187.73,1551.29l35.81,39.07-39.07,35.81-35.81-39.07,39.07-35.81m.03-.71l-39.81,36.49,36.49,39.81,39.81-36.49-36.49-39.81h0Z"/><path class="e" d="M2134.06,199.93l23.84,85.75-85.75,23.84-23.84-85.75,85.75-23.84m.35-.62l-86.71,24.1,24.1,86.71,86.71-24.1-24.1-86.71h0Z"/><path class="e" d="M491.13,2007.21l47.49,23.54-23.54,47.49-47.49-23.54,23.54-47.49m-.23-.67l-23.98,48.38,48.38,23.98,23.98-48.38-48.38-23.98h0Z"/><path class="e" d="M531.71,430.27l52.84,4.06-4.06,52.84-52.84-4.06,4.06-52.84m-.46-.54l-4.14,53.84,53.84,4.14,4.14-53.84-53.84-4.14h0Z"/><path class="e" d="M1929.4,1746.39l24.39,11.56-11.56,24.39-24.39-11.56,11.56-24.39m-.24-.67l-11.99,25.3,25.3,11.99,11.99-25.3-25.3-11.99h0Z"/><path class="e" d="M1583.32,2430.87v26.99h-26.99v-26.99h26.99m.5-.5h-27.99v27.99h27.99v-27.99h0Z"/><path class="e" d="M1034.72,368.68l25.78,7.99-7.99,25.78-25.78-7.99,7.99-25.78m-.33-.63l-8.29,26.74,26.74,8.29,8.29-26.74-26.74-8.29h0Z"/><path class="e" d="M838.58,2246.46l105.62,145.19-145.55,105.88-105.62-145.19,145.55-105.88m.11-.7l-146.36,106.47,106.2,146,146.36-106.47-106.2-146h0Z"/><line class="f" x1="2888.11" y1="1339.73" x2=".11" y2=".23"/><line class="f" x1="2888.11" y1="1478.23" x2=".61" y2="1974.23"/></g></g></svg>