<?xml version="1.0" encoding="UTF-8"?><svg xmlns="http://www.w3.org/2000/svg" viewBox="0 0 2844.61 2481.46"><defs><style>.d{stroke-width:2px;}.d,.e{fill:none;stroke:#000;stroke-miterlimit:10;}</style></defs><g id="a"/><g id="b"><g id="c"><path d="M817.93,717.15l265.22,20.39-20.39,265.22-265.22-20.39,20.39-265.22m-1.84-2.15l-20.7,269.21,269.21,20.7,20.7-269.21-269.21-20.7h0Z"/><path d="M2290.16,372.75l550.39,294.01-294.01,550.39-550.39-294.01,294.01-550.39m-1.23-4.06l-296.84,555.69,555.69,296.84,296.84-555.69-555.69-296.84h0Z"/><path d="M2029.53,1868.09l68.86,247.74-247.74,68.86-68.86-247.74,247.74-68.86m1.39-2.46l-251.59,69.94,69.94,251.59,251.59-69.94-69.94-251.59h0Z"/><path d="M423.33,1631.81l316.16,419.13-419.13,316.16L4.2,1947.97l419.13-316.16m.59-4.2L0,1947.38l319.77,423.92,423.92-319.77-319.77-423.92h0Z"/><path d="M2085.38,1560.34l88.58,8.65-8.65,88.58-88.58-8.65,8.65-88.58m-.45-.55l-8.75,89.57,89.57,8.75,8.75-89.57-89.57-8.75h0Z"/><path d="M714.19,1051.8l114.32,66-66,114.32-114.32-66,66-114.32m-.37-1.37l-67,116.05,116.05,67,67-116.05-116.05-67h0Z"/><path d="M1051.19,80.8l114.32,66-66,114.32-114.32-66,66-114.32m-.37-1.37l-67,116.05,116.05,67,67-116.05-116.05-67h0Z"/><path d="M1218.97,1534.52l35.81,39.07-39.07,35.81-35.81-39.07,39.07-35.81m.03-.71l-39.81,36.49,36.49,39.81,39.81-36.49-36.49-39.81h0Z"/><path d="M2164.95,183.78l23.57,84.79-84.78,23.57-23.57-84.79,84.78-23.57m.7-1.23l-86.71,24.1,24.1,86.71,86.71-24.1-24.1-86.71h0Z"/><path d="M522.6,1991.11l46.59,23.09-23.09,46.59-46.59-23.09,23.09-46.59m-.45-1.34l-23.98,48.38,48.38,23.98,23.98-48.38-48.38-23.98h0Z"/><path d="M562.95,413.5l52.84,4.06-4.06,52.84-52.84-4.06,4.06-52.84m-.46-.54l-4.14,53.84,53.84,4.14,4.14-53.84-53.84-4.14h0Z"/><path d="M1960.52,1729.29l24.84,11.77-11.77,24.84-24.84-11.77,11.77-24.84m-.12-.33l-11.99,25.3,25.3,11.99,11.99-25.3-25.3-11.99h0Z"/><path d="M1614.81,2413.85v27.49h-27.49v-27.49h27.49m.25-.25h-27.99v27.99h27.99v-27.99h0Z"/><path d="M967.8,389.6l26.26,8.14-8.14,26.26-26.26-8.14,8.14-26.26m-.16-.31l-8.29,26.74,26.74,8.29,8.29-26.74-26.74-8.29h0Z"/><path d="M869.49,2231.79l103.85,142.76-143.13,104.12-103.85-142.76,143.13-104.12m.44-2.79l-146.36,106.47,106.2,146,146.36-106.47-106.2-146h0Z"/><line class="e" x1="2595.45" y1="1015.96" x2="311.85" y2=".46"/><line class="d" x1="2725.85" y1="1499.46" x2="31.85" y2="1995.46"/></g></g></svg>